<?xml version="1.0" encoding="utf-8"?>
<!-- Generator: Adobe Illustrator 22.0.0, SVG Export Plug-In . SVG Version: 6.00 Build 0)  -->
<svg version="1.1" id="Слой_1" xmlns="http://www.w3.org/2000/svg" xmlns:xlink="http://www.w3.org/1999/xlink" x="0px" y="0px"
	 viewBox="0 0 69.5 36" style="enable-background:new 0 0 69.5 36;" xml:space="preserve">
<style type="text/css">
	.st0{fill:#FFFFFF;stroke:#FFFFFF;stroke-miterlimit:10;}
</style>
<rect x="13.5" y="22.6" class="st0" width="13" height="11.5"/>
<g>
	<title>Layer 1</title>
	<g id="outline">
		<path id="svg_1_5_" d="M22,29.5h-6.3c-0.8,0-1.4,0.5-1.4,1.1c0,0.6,0.6,1.2,1.4,1.2H22c0.8,0,1.4-0.5,1.4-1.2
			C23.4,30,22.8,29.5,22,29.5z M22,31.1h-6.3c-0.3,0-0.5-0.2-0.5-0.4c0-0.2,0.2-0.4,0.5-0.4H22c0.3,0,0.5,0.2,0.5,0.4
			C22.5,30.9,22.3,31.1,22,31.1z"/>
		<path id="svg_2_5_" d="M26.5,28.3c0-0.2-0.2-0.3-0.5-0.3h-0.9v-1.1c0-0.2-0.2-0.4-0.5-0.4h-0.5v-0.4c0-0.5-0.4-0.9-0.9-1.1v-1.3
			c0-0.6-0.6-1.1-1.2-1.1h-0.2c-0.2,0-0.3-0.1-0.3-0.3v-0.2c0-0.8-0.7-1.4-1.6-1.4h-0.6c-0.3,0-0.5,0.2-0.5,0.4v1.3
			c0,0.5-0.5,1-1.1,1h-2c-0.8,0-1.4,0.5-1.4,1.1V25c-0.5,0.2-0.9,0.6-0.9,1.1v0.4h-0.5c-0.3,0-0.5,0.2-0.5,0.4V28H12
			c-0.2,0-0.4,0.1-0.5,0.3l-0.4,3.3V19.9c0-0.2-0.2-0.4-0.5-0.4h-0.5v-2.3c0,0,0-0.1,0-0.1l-0.5-1.9c0-0.2-0.2-0.3-0.4-0.3H8.9v-1.5
			h1.4c0.3,0,0.5-0.2,0.5-0.4v-1.5c0-0.2-0.2-0.4-0.5-0.4H7c-0.1,0-0.1,0-0.2,0l-2.3,0.8c-0.2,0.1-0.3,0.2-0.3,0.4V15H3.9
			c-0.2,0-0.4,0.1-0.4,0.3L3,17.2c0,0,0,0.1,0,0.1v2.3H2.5c-0.3,0-0.5,0.2-0.5,0.4v13c0,0.6,0.6,1.2,1.4,1.2h6.3
			c0.8,0,1.4-0.5,1.4-1.2v-0.6c0.1,0.4,0.3,0.8,0.6,1.1c0.4,0.4,1,0.7,1.7,0.7h11.3c0.6,0,1.2-0.3,1.7-0.7c0.5-0.5,0.7-1.1,0.6-1.7
			L26.5,28.3z M5.2,12.5l1.9-0.6h2.6v0.8H8.4C8.2,12.7,8,12.8,8,13V15H5.2V12.5z M3.9,17.3l0.4-1.6h4.7l0.4,1.6v2.3H3.9V17.3z
			 M10.2,33c0,0.2-0.2,0.4-0.5,0.4H3.4C3.2,33.4,3,33.2,3,33V21.9h7.3V33z M10.2,21.1H3v-0.8h7.3V21.1z M14.3,26.1
			c0-0.2,0.2-0.4,0.5-0.4H17v-0.8h-1.8v-0.4c0-0.2,0.2-0.4,0.5-0.4h2c1.1,0,2-0.8,2-1.7v-1h0.2c0.4,0,0.7,0.3,0.7,0.6v0.2
			c0,0.6,0.6,1.1,1.2,1.1h0.2c0.2,0,0.3,0.1,0.3,0.3v1.2h-3.2v0.8h3.6c0.3,0,0.5,0.2,0.5,0.4v0.4h-9.1V26.1z M13.4,27.2h10.9V28
			H13.4V27.2z M25.7,33c-0.2,0.2-0.6,0.4-1,0.4H13.4c-0.4,0-0.7-0.2-1-0.4c-0.3-0.3-0.5-0.7-0.4-1.1l0.4-3.1h13.2l0.4,3.1
			C26.1,32.3,26,32.7,25.7,33z"/>
		<path id="svg_3_5_" d="M25.2,30.2l-0.9,0.2l0.3,1.5h-1.2v0.8h1.2c0.5,0,0.9-0.3,0.9-0.8c0-0.1,0-0.1,0-0.2
			C25.5,31.7,25.2,30.2,25.2,30.2z"/>
		<path id="svg_4_5_" d="M4.3,31.8h1.8c0.3,0,0.5-0.2,0.5-0.4V23c0-0.2-0.2-0.4-0.5-0.4H4.3c-0.3,0-0.5,0.2-0.5,0.4v8.4
			C3.9,31.7,4.1,31.8,4.3,31.8z M4.8,23.4h0.9v7.7H4.8V23.4z"/>
		<rect id="svg_5_4_" x="8.4" y="22.6" width="0.9" height="0.8"/>
		<rect id="svg_6_3_" x="8.4" y="24.2" width="0.9" height="0.8"/>
		<path id="svg_7_3_" d="M4.8,16.9v1.5h0.9v-1.1h0.9v-0.8H5.2C5,16.5,4.8,16.7,4.8,16.9z"/>
	</g>
</g>
<g>
	<title>Layer 1</title>
	<g id="svg_1_3_">
		<path id="svg_2_3_" d="M41.8,17.6c-0.2,0-0.4,0.2-0.4,0.4V20c0,0.2,0.2,0.4,0.4,0.4s0.4-0.2,0.4-0.4v-1.9
			C42.2,17.8,42.1,17.6,41.8,17.6z"/>
		<path id="svg_3_3_" d="M47,19.3c-2.2,0-4,1.9-4,4.1s1.8,4.1,4,4.1s4-1.9,4-4.1C51,21.1,49.2,19.3,47,19.3z M47,26.7
			c-1.7,0-3.1-1.5-3.1-3.3c0-1.8,1.4-3.3,3.1-3.3s3.1,1.5,3.1,3.3l0,0C50.1,25.2,48.7,26.7,47,26.7z"/>
		<path id="svg_4_3_" d="M66.2,25.9h-5.5l0-0.4v0l0.6-5.8c0,0,0,0,0,0l0.5-4.7c0-0.2-0.1-0.4-0.4-0.5c0,0,0,0,0,0h-7.5
			c-0.4-1-1.3-1.8-2.4-2v-2.2c0-0.2-0.2-0.4-0.4-0.4c0,0,0,0,0,0h-2.9V8h2.3c0.2,0,0.4-0.2,0.4-0.4c0-1.1-0.8-2-1.8-2.1l-3.7-0.4
			c-0.2,0-0.4,0.1-0.5,0.4c0,0,0,0,0,0v2.1C45,7.8,45.1,8,45.4,8h0.5v1.8H43c-0.2,0-0.4,0.2-0.4,0.4v2.2c-1.5,0.3-2.6,1.7-2.6,3.3
			v16.6c0,1.1,0.8,1.9,1.8,1.9h10.4c0.4,0,0.7-0.1,1-0.3c0,0.2,0.2,0.3,0.4,0.3h14c0.2,0,0.4-0.2,0.4-0.4v-6.2
			C68,26.7,67.2,25.9,66.2,25.9z M67.2,27.8L67.2,27.8l-8.4,0.1v-0.1c0-0.6,0.4-1,1-1h6.4C66.7,26.7,67.2,27.2,67.2,27.8z
			 M59.8,25.9c-1,0-1.8,0.9-1.8,1.9v2.5h-4l-0.4-4.5L59.8,25.9L59.8,25.9C59.8,25.9,59.8,25.9,59.8,25.9z M53,20h7.4l-0.5,4.9h-6.4
			l-0.1-0.7C53.4,24.2,53,20,53,20z M60.5,19.2h-7.6l-0.4-3.8h8.3C60.8,15.4,60.5,19.2,60.5,19.2z M45.8,6L49,6.4
			c0.4,0,0.8,0.3,1,0.8h-2.3h0h0h-1.4h0h0h-0.5C45.8,7.2,45.8,6,45.8,6z M46.7,8h0.6v1.8h-0.6V8z M50.6,10.7v1.7h-7.1v-1.7
			C43.5,10.7,50.6,10.7,50.6,10.7z M52.2,33.5H41.8c-0.6,0-1-0.5-1-1V15.8c0-1.4,1.1-2.5,2.4-2.5h7.5c0.8,0,1.6,0.4,2.1,1.2h-0.8
			c-0.2,0-0.4,0.2-0.4,0.4c0,0,0,0,0,0l0.9,9.5l0.1,0.9v0l0.5,5.3v1.7C53.2,33,52.8,33.5,52.2,33.5z M54,32.5v-1.3H58v2.4H54V32.5z
			 M67.2,33.5h-8.4v-4.8h8.4V33.5z"/>
		<path id="svg_5_2_" d="M63,29.3c-0.8,0-1.5,0.8-1.5,1.8c0,1,0.7,1.8,1.5,1.8c0.8,0,1.5-0.8,1.5-1.8C64.4,30.1,63.8,29.3,63,29.3z
			 M63,32.1c-0.3,0-0.6-0.4-0.6-1c0-0.5,0.3-1,0.6-1s0.6,0.4,0.6,1C63.6,31.6,63.3,32.1,63,32.1z"/>
	</g>
</g>
<g>
	<title>Layer 1</title>
	<g id="svg_1_1_">
		<g id="svg_2_1_">
			<g id="svg_3_1_">
				<path id="svg_4_1_" d="M39,16.5h-1.6v-0.8c0-0.9-0.7-1.6-1.6-1.6h-0.8v-1.6h1.6c0.7,0,1.2-0.5,1.2-1.2s-0.5-1.2-1.2-1.2h-8.9
					c-0.7,0-1.2,0.5-1.2,1.2s0.5,1.2,1.2,1.2h4.9v1.6h-0.8c-0.9,0-1.6,0.7-1.6,1.6v0.8h-1.6c-1.1,0-2,0.9-2,2v13.6c0,1.1,0.9,2,2,2
					H39c1.1,0,2-0.9,2-2V18.5C41,17.4,40.1,16.5,39,16.5L39,16.5z M27.6,11.7c-0.2,0-0.4-0.2-0.4-0.4c0-0.2,0.2-0.4,0.4-0.4h8.9
					c0.2,0,0.4,0.2,0.4,0.4s-0.2,0.4-0.4,0.4H27.6L27.6,11.7z M34.1,12.5v1.6h-0.8v-1.6C33.3,12.5,34.1,12.5,34.1,12.5z M30.9,15.7
					c0-0.4,0.4-0.8,0.8-0.8h4.1c0.4,0,0.8,0.4,0.8,0.8v0.8h-5.7L30.9,15.7L30.9,15.7z M40.2,32.1c0,0.7-0.5,1.2-1.2,1.2H28.4
					c-0.7,0-1.2-0.5-1.2-1.2V18.5c0-0.7,0.5-1.2,1.2-1.2H39c0.7,0,1.2,0.5,1.2,1.2L40.2,32.1L40.2,32.1z"/>
				<path id="svg_5" d="M33.7,22.9c-1.3,0-2.4,1.1-2.4,2.4c0,1.3,1.1,2.4,2.4,2.4c1.3,0,2.4-1.1,2.4-2.4C36.1,24,35,22.9,33.7,22.9z
					 M33.7,26.9c-0.9,0-1.6-0.7-1.6-1.6c0-0.9,0.7-1.6,1.6-1.6c0.9,0,1.6,0.7,1.6,1.6S34.6,26.9,33.7,26.9z"/>
				<path id="svg_6" d="M33.7,22.1c0.2,0,0.4-0.2,0.4-0.4v-1.2c0-0.2-0.2-0.4-0.4-0.4c-0.2,0-0.4,0.2-0.4,0.4v1.2
					C33.3,21.9,33.5,22.1,33.7,22.1L33.7,22.1z"/>
				<path id="svg_7" d="M31.5,22.4c0.1,0.1,0.2,0.2,0.4,0.2c0.1,0,0.3-0.1,0.4-0.2s0.1-0.3,0-0.4l-0.6-1c-0.1-0.2-0.4-0.3-0.6-0.1
					s-0.3,0.4-0.1,0.5L31.5,22.4L31.5,22.4z"/>
				<path id="svg_8" d="M29.3,23.3l1.1,0.6c0.2,0.1,0.4,0,0.6-0.1s0-0.4-0.1-0.5l-1.1-0.6c-0.1-0.1-0.3-0.1-0.4,0
					c-0.1,0.1-0.2,0.2-0.2,0.3C29.1,23.1,29.2,23.2,29.3,23.3L29.3,23.3z"/>
				<path id="svg_9" d="M30.5,25.3c0-0.2-0.2-0.4-0.4-0.4h-1.2c-0.2,0-0.4,0.2-0.4,0.4c0,0.2,0.2,0.4,0.4,0.4h1.2
					C30.3,25.7,30.5,25.5,30.5,25.3z"/>
				<path id="svg_10" d="M30.9,26.9c-0.1-0.2-0.4-0.3-0.6-0.1l-1.1,0.6c-0.2,0.1-0.3,0.4-0.1,0.5c0.1,0.2,0.4,0.3,0.6,0.1l1.1-0.6
					C30.9,27.4,31,27.1,30.9,26.9L30.9,26.9z"/>
				<path id="svg_11" d="M32.1,28.1c-0.1-0.1-0.2-0.1-0.3,0c-0.1,0-0.2,0.1-0.2,0.2l-0.6,1c-0.1,0.2,0,0.4,0.1,0.5
					c0.2,0.1,0.4,0,0.6-0.1l0.6-1C32.3,28.5,32.3,28.2,32.1,28.1z"/>
				<path id="svg_12" d="M33.7,28.5c-0.2,0-0.4,0.2-0.4,0.4v1.2c0,0.2,0.2,0.4,0.4,0.4c0.2,0,0.4-0.2,0.4-0.4v-1.2
					C34.1,28.7,33.9,28.5,33.7,28.5L33.7,28.5z"/>
				<path id="svg_13" d="M35.9,28.2c-0.1-0.1-0.2-0.2-0.4-0.2c-0.1,0-0.3,0.1-0.4,0.2c-0.1,0.1-0.1,0.3,0,0.4l0.6,1
					c0.1,0.2,0.4,0.3,0.6,0.1c0.2-0.1,0.3-0.4,0.1-0.5L35.9,28.2z"/>
				<path id="svg_14" d="M38.1,27.4l-1.1-0.6c-0.1-0.1-0.3-0.1-0.4,0c-0.1,0.1-0.2,0.2-0.2,0.3c0,0.1,0.1,0.3,0.2,0.3l1.1,0.6
					c0.2,0.1,0.4,0,0.6-0.1C38.4,27.7,38.3,27.5,38.1,27.4L38.1,27.4z"/>
				<path id="svg_15" d="M38.6,24.9h-1.2c-0.2,0-0.4,0.2-0.4,0.4s0.2,0.4,0.4,0.4h1.2c0.2,0,0.4-0.2,0.4-0.4S38.8,24.9,38.6,24.9z"
					/>
				<path id="svg_16" d="M36.5,23.7c0.1,0.2,0.4,0.3,0.6,0.1l1.1-0.6c0.2-0.1,0.3-0.4,0.1-0.5c-0.1-0.2-0.4-0.3-0.6-0.1l-1.1,0.6
					C36.5,23.3,36.4,23.5,36.5,23.7L36.5,23.7z"/>
				<path id="svg_17" d="M35.3,22.6c0.2,0.1,0.4,0,0.6-0.1l0.6-1c0.1-0.2,0-0.4-0.1-0.5s-0.4,0-0.6,0.1l-0.6,1
					C35.1,22.2,35.1,22.4,35.3,22.6L35.3,22.6z"/>
			</g>
		</g>
	</g>
	<g id="svg_18">
	</g>
	<g id="svg_19">
	</g>
	<g id="svg_20">
	</g>
	<g id="svg_21">
	</g>
	<g id="svg_22">
	</g>
	<g id="svg_23">
	</g>
	<g id="svg_24">
	</g>
	<g id="svg_25">
	</g>
	<g id="svg_26">
	</g>
	<g id="svg_27">
	</g>
	<g id="svg_28">
	</g>
	<g id="svg_29">
	</g>
	<g id="svg_30">
	</g>
	<g id="svg_31">
	</g>
	<g id="svg_32">
	</g>
</g>
<path d="M68.5,34.1h-67c-0.3,0-0.5,0.2-0.5,0.5l0,0c0,0.3,0.2,0.5,0.5,0.5h67c0.3,0,0.5-0.2,0.5-0.5l0,0
	C69,34.3,68.8,34.1,68.5,34.1z"/>
</svg>
